HIERARCHY
ROOT hip
{
  OFFSET 0 0 0
  CHANNELS 6 Xposition Yposition Zposition Zrotation Yrotation Xrotation
  JOINT abdomen
  {
    OFFSET 0 20.6881 -0.73152
    CHANNELS 3 Zrotation Xrotation Yrotation
    JOINT chest
    {
      OFFSET 0 11.7043 -0.48768
      CHANNELS 3 Zrotation Xrotation Yrotation
      JOINT neck
      {
        OFFSET 0 22.1894 -2.19456
        CHANNELS 3 Zrotation Xrotation Yrotation
        JOINT head
        {
          OFFSET -0.24384 7.07133 1.2192
          CHANNELS 3 Zrotation Xrotation Yrotation
          JOINT leftEye
          {
            OFFSET 4.14528 8.04674 8.04672
            CHANNELS 3 Zrotation Xrotation Yrotation
            End Site
            {
              OFFSET 1 0 0
            }
          }
          JOINT rightEye
          {
            OFFSET -3.6576 8.04674 8.04672
            CHANNELS 3 Zrotation Xrotation Yrotation
            End Site
            {
              OFFSET 1 0 0
            }
          }
        }
      }
      JOINT rCollar
      {
        OFFSET -2.68224 19.2634 -4.8768
        CHANNELS 3 Zrotation Xrotation Yrotation
        JOINT rShldr
        {
          OFFSET -8.77824 -1.95073 1.46304
          CHANNELS 3 Zrotation Xrotation Yrotation
          JOINT rForeArm
          {
            OFFSET -28.1742 -1.7115 0.48768
            CHANNELS 3 Zrotation Xrotation Yrotation
            JOINT rHand
            {
              OFFSET -22.5879 0.773209 7.07136
              CHANNELS 3 Zrotation Xrotation Yrotation
              JOINT rThumb1
              {
                OFFSET -1.2192 -0.487915 3.41376
                CHANNELS 3 Zrotation Xrotation Yrotation
                JOINT rThumb2
                {
                  OFFSET -3.37035 -0.52449 3.41376
                  CHANNELS 3 Zrotation Xrotation Yrotation
                  End Site
                  {
                    OFFSET -1.78271 -1.18214 1.43049
                  }
                }
              }
              JOINT rIndex1
              {
                OFFSET -7.75947 0.938293 5.60832
                CHANNELS 3 Zrotation Xrotation Yrotation
                JOINT rIndex2
                {
                  OFFSET -2.54057 -0.884171 1.56538
                  CHANNELS 3 Zrotation Xrotation Yrotation
                  End Site
                  {
                    OFFSET -1.62519 -0.234802 1.16502
                  }
                }
              }
              JOINT rMid1
              {
                OFFSET -8.24714 1.18213 3.41376
                CHANNELS 3 Zrotation Xrotation Yrotation
                JOINT rMid2
                {
                  OFFSET -3.10165 -0.590103 1.0647
                  CHANNELS 3 Zrotation Xrotation Yrotation
                  End Site
                  {
                    OFFSET -2.48547 -0.328903 0.83742
                  }
                }
              }
              JOINT rRing1
              {
                OFFSET -8.82822 0.546677 1.51678
                CHANNELS 3 Zrotation Xrotation Yrotation
                JOINT rRing2
                {
                  OFFSET -2.60934 -0.819778 -0.0198488
                  CHANNELS 3 Zrotation Xrotation Yrotation
                  End Site
                  {
                    OFFSET -2.33842 -0.294052 0.168128
                  }
                }
              }
              JOINT rPinky1
              {
                OFFSET -8.27202 -0.0477905 -0.4584
                CHANNELS 3 Zrotation Xrotation Yrotation
                JOINT rPinky2
                {
                  OFFSET -1.82734 -0.647385 -0.700984
                  CHANNELS 3 Zrotation Xrotation Yrotation
                  End Site
                  {
                    OFFSET -1.69225 -0.51767 -0.607171
                  }
                }
              }
            }
          }
        }
      }
      JOINT lCollar
      {
        OFFSET 2.68224 19.2634 -4.8768
        CHANNELS 3 Zrotation Xrotation Yrotation
        JOINT lShldr
        {
          OFFSET 8.77824 -1.95073 1.46304
          CHANNELS 3 Zrotation Xrotation Yrotation
          JOINT lForeArm
          {
            OFFSET 28.1742 -1.7115 0.48768
            CHANNELS 3 Zrotation Xrotation Yrotation
            JOINT lHand
            {
              OFFSET 22.5879 0.773209 7.07136
              CHANNELS 3 Zrotation Xrotation Yrotation
              JOINT lThumb1
              {
                OFFSET 1.2192 -0.487915 3.41376
                CHANNELS 3 Zrotation Xrotation Yrotation
                JOINT lThumb2
                {
                  OFFSET 3.37035 -0.52449 3.41376
                  CHANNELS 3 Zrotation Xrotation Yrotation
                  End Site
                  {
                    OFFSET 1.78271 -1.18214 1.43049
                  }
                }
              }
              JOINT lIndex1
              {
                OFFSET 7.75947 0.938293 5.60832
                CHANNELS 3 Zrotation Xrotation Yrotation
                JOINT lIndex2
                {
                  OFFSET 2.54057 -0.884171 1.56538
                  CHANNELS 3 Zrotation Xrotation Yrotation
                  End Site
                  {
                    OFFSET 1.62519 -0.234802 1.16502
                  }
                }
              }
              JOINT lMid1
              {
                OFFSET 8.24714 1.18213 3.41376
                CHANNELS 3 Zrotation Xrotation Yrotation
                JOINT lMid2
                {
                  OFFSET 3.10165 -0.590103 1.0647
                  CHANNELS 3 Zrotation Xrotation Yrotation
                  End Site
                  {
                    OFFSET 2.48547 -0.328903 0.83742
                  }
                }
              }
              JOINT lRing1
              {
                OFFSET 8.82822 0.546677 1.51678
                CHANNELS 3 Zrotation Xrotation Yrotation
                JOINT lRing2
                {
                  OFFSET 2.60934 -0.819778 -0.0198488
                  CHANNELS 3 Zrotation Xrotation Yrotation
                  End Site
                  {
                    OFFSET 2.33842 -0.294052 0.168128
                  }
                }
              }
              JOINT lPinky1
              {
                OFFSET 8.27202 -0.0477905 -0.4584
                CHANNELS 3 Zrotation Xrotation Yrotation
                JOINT lPinky2
                {
                  OFFSET 1.82734 -0.647385 -0.700984
                  CHANNELS 3 Zrotation Xrotation Yrotation
                  End Site
                  {
                    OFFSET 1.69225 -0.51767 -0.607171
                  }
                }
              }
            }
          }
        }
      }
    }
  }
  JOINT rButtock
  {
    OFFSET -8.77824 4.35084 1.2192
    CHANNELS 3 Zrotation Xrotation Yrotation
    JOINT rThigh
    {
      OFFSET 0 -1.70687 -2.19456
      CHANNELS 3 Zrotation Xrotation Yrotation
      JOINT rShin
      {
        OFFSET 0 -36.8199 0.73152
        CHANNELS 3 Zrotation Xrotation Yrotation
        JOINT rFoot
        {
          OFFSET 0.73152 -45.1104 -5.12064
          CHANNELS 3 Zrotation Xrotation Yrotation
          End Site
          {
            OFFSET -1.1221 -3.69964 12.103
          }
        }
      }
    }
  }
  JOINT lButtock
  {
    OFFSET 8.77824 4.35084 1.2192
    CHANNELS 3 Zrotation Xrotation Yrotation
    JOINT lThigh
    {
      OFFSET 0 -1.70687 -2.19456
      CHANNELS 3 Zrotation Xrotation Yrotation
      JOINT lShin
      {
        OFFSET 0 -36.8199 0.73152
        CHANNELS 3 Zrotation Xrotation Yrotation
        JOINT lFoot
        {
          OFFSET -0.73152 -45.1104 -5.12064
          CHANNELS 3 Zrotation Xrotation Yrotation
          End Site
          {
            OFFSET 1.1221 -3.69964 12.103
          }
        }
      }
    }
  }
}
MOTION
Frames:	4
Frame Time:	0.00833333
-1.63952 82.4855 50.0764 0.0 0.0 0.0 -4.35895 0.00629238 -0.117455 -1.20159 0.0324761 -0.207681 -4.83672e-14 -1.59028e-15 -7.45442e-16 -1.47744e-13 3.18055e-15 -1.89156e-15 -0.0 0.0 0.0 -0.0 0.0 0.0 -2.48006e-14 -1.04828e-17 -1.49089e-16 -5.13438e-13 -3.16813e-16 -7.15625e-15 -8.85119e-12 2.65974e-12 -2.54444e-14 -1.01678e-10 -2.74007e-12 -1.39308e-12 -2.39755e-10 -1.75602e-13 -3.02471e-12 -4.14044e-10 -3.08514e-13 -5.21929e-12 -2.39748e-10 -1.72943e-13 -3.03425e-12 7.73091 5.47488 0.417314 -2.39754e-10 -1.74533e-13 -3.03107e-12 2.90554 0.965183 0.102902 -2.39745e-10 -1.75229e-13 -3.0263e-12 10.2786 0.731801 0.0259123 -2.39756e-10 -1.76918e-13 -3.02153e-12 2.22167 -0.733487 -0.20892 -2.47978e-14 -1.37829e-17 -4.47265e-16 -5.19352e-13 -6.21202e-18 -8.74653e-15 -8.92016e-12 -2.66193e-12 -3.81667e-14 -1.01634e-10 2.5881e-12 -1.35174e-12 -2.39812e-10 -1.65412e-13 -3.0088e-12 -4.14149e-10 -2.92611e-13 -5.18589e-12 -2.39817e-10 -1.62606e-13 -2.99608e-12 -7.73091 5.47488 -0.417314 -2.39813e-10 -1.6519e-13 -3.01199e-12 -2.90554 0.965183 -0.102902 -2.39822e-10 -1.64892e-13 -3.00721e-12 -10.2786 0.731801 -0.0259123 -2.39812e-10 -1.64594e-13 -3.01199e-12 -2.22167 -0.733487 0.20892 -2.03217e-16 0.0 -3.88251e-19 -2.88812 -1.94435 0.0304149 -0.00797295 -2.07874 -0.0650956 -0.422334 4.00217 0.127127 2.03217e-16 0.0 3.88251e-19 -3.72544 -11.2507 0.483804 -0.0143129 14.7725 -0.388794 0.544891 -3.54242 0.0125048
-3.71316 82.2062 48.1437 -8.1418 -1.8888 8.3613 -2.73485 -2.67767 0.49977 -1.76677 -2.9876 -0.158201 -2.10073 3.1987 -2.74662 5.12449 -1.50809 -5.15569 -0.0 0.0 0.0 -0.0 0.0 0.0 4.88028e-14 -5.43385e-14 -3.27296e-16 23.1208 1.52904 -4.02015 -3.71445 -1.59804 5.89569 0.256604 11.2787 1.4765 -7.35665e-10 6.16541e-10 -3.61638e-10 -1.28065e-09 1.06022e-09 -6.04425e-10 -7.35656e-10 6.16544e-10 -3.61646e-10 7.73091 5.47488 0.417314 -7.35665e-10 6.16542e-10 -3.61643e-10 2.90554 0.965183 0.102902 -7.35656e-10 6.16541e-10 -3.61639e-10 10.2786 0.731801 0.0259123 -7.35668e-10 6.16541e-10 -3.61634e-10 2.22167 -0.733487 -0.20892 4.87827e-14 -5.43402e-14 -5.87036e-16 -22.5668 5.42422 2.59995 3.3173 -1.36367 -5.32682 -0.121697 7.76095 -1.05508 7.87318e-11 -4.47835e-10 -8.54179e-10 1.17207e-10 -7.91897e-10 -1.47999e-09 7.8727e-11 -4.47833e-10 -8.54165e-10 -7.73091 5.47488 -0.417314 7.87317e-11 -4.47834e-10 -8.5418e-10 -2.90554 0.965183 -0.102902 7.8723e-11 -4.47833e-10 -8.54176e-10 -10.2786 0.731801 -0.0259123 7.87325e-11 -4.47832e-10 -8.54177e-10 -2.22167 -0.733487 0.20892 -2.03217e-16 0.0 -3.88251e-19 -1.78096 -2.75243 6.48611 0.00669263 -1.77848 0.0536471 -0.898642 1.24795 -6.52568 2.03217e-16 0.0 3.88251e-19 -4.03491 -9.77893 -12.0171 -0.00507852 14.1295 -0.225835 1.60051 -10.1835 14.8661
-3.69916 82.1973 48.114 -8.0749 -1.9122 8.4991 -0.938886 -5.49614 1.1777 -2.38046 -6.18939 -0.102587 -3.93741 6.55577 -5.65593 10.2219 -3.07627 -10.5742 -0.0 0.0 0.0 -0.0 0.0 0.0 1.28861e-13 -1.12816e-13 -1.19581e-15 47.8221 3.09827 -8.29404 -7.30017 -3.24029 12.1664 -0.154229 23.1613 3.23839 -1.27937e-09 1.2838e-09 -7.42312e-10 -2.23036e-09 2.20738e-09 -1.2399e-09 -1.27935e-09 1.2838e-09 -7.42318e-10 7.73091 5.47488 0.417314 -1.27937e-09 1.2838e-09 -7.42316e-10 2.90554 0.965183 0.102902 -1.27936e-09 1.2838e-09 -7.42313e-10 10.2786 0.731801 0.0259123 -1.27937e-09 1.2838e-09 -7.42308e-10 2.22167 -0.733487 -0.20892 1.28816e-13 -1.12816e-13 -1.41634e-15 -46.9513 11.1501 5.43249 6.55229 -2.76752 -10.9718 0.0723447 16.0015 -2.24317 4.40347e-10 -9.21596e-10 -1.78134e-09 7.21231e-10 -1.63048e-09 -3.08684e-09 4.40342e-10 -9.21594e-10 -1.78133e-09 -7.73091 5.47488 -0.417314 4.40347e-10 -9.21594e-10 -1.78134e-09 -2.90554 0.965183 -0.102902 4.40338e-10 -9.21593e-10 -1.78134e-09 -10.2786 0.731801 -0.0259123 4.40347e-10 -9.21591e-10 -1.78133e-09 -2.22167 -0.733487 0.20892 -2.03217e-16 0.0 -3.88251e-19 -0.401992 -3.53505 13.3114 0.020895 -1.45728 0.179321 -2.09121 -1.60299 -13.546 2.03217e-16 0.0 3.88251e-19 -3.65866 -7.84174 -25.0922 0.00864188 13.4467 -0.0552739 6.38237 -15.4213 31.3127
-3.68478 82.1902 48.094 -8.001 -1.9476 8.5928 0.688189 -8.0422 1.7498 -2.88149 -9.02778 -0.0593326 -5.37483 9.50732 -8.3424 14.5682 -4.3779 -15.5081 -0.0 0.0 0.0 -0.0 0.0 0.0 1.9601e-13 -1.62994e-13 -6.83711e-16 70.0024 4.49679 -12.0939 -10.1715 -4.59145 17.739 -1.27158 33.7369 5.22585 -1.72749e-09 1.84997e-09 -1.07887e-09 -3.01387e-09 3.18127e-09 -1.80284e-09 -1.72747e-09 1.84998e-09 -1.07887e-09 7.73091 5.47488 0.417314 -1.72749e-09 1.84997e-09 -1.07887e-09 2.90554 0.965183 0.102902 -1.72748e-09 1.84997e-09 -1.07887e-09 10.2786 0.731801 0.0259123 -1.72749e-09 1.84998e-09 -1.07886e-09 2.22167 -0.733487 -0.20892 1.95944e-13 -1.62993e-13 -8.66577e-16 -69.2236 16.1359 8.08542 9.20066 -3.94981 -16.015 0.556325 23.2498 -3.41376 7.1582e-10 -1.34318e-09 -2.55652e-09 1.17992e-09 -2.3751e-09 -4.4296e-09 7.15816e-10 -1.34317e-09 -2.5565e-09 -7.73091 5.47488 -0.417314 7.15821e-10 -1.34317e-09 -2.55652e-09 -2.90554 0.965183 -0.102902 7.15812e-10 -1.34317e-09 -2.55651e-09 -10.2786 0.731801 -0.0259123 7.15821e-10 -1.34317e-09 -2.55651e-09 -2.22167 -0.733487 0.20892 -2.03217e-16 0.0 -3.88251e-19 0.96652 -4.17083 19.4285 0.0322895 -1.17795 0.291031 -3.73628 -3.98459 -19.8761 2.03217e-16 0.0 3.88251e-19 -2.71486 -6.00827 -36.703 0.024645 12.843 0.0973112 13.1757 -17.3997 46.557
